<?xml version="1.0" encoding="utf-8"?><svg viewBox="0 0 50 50" xmlns="http://www.w3.org/2000/svg" xmlns:xlink="http://www.w3.org/1999/xlink"><style>:root>svg{display:none}:root>svg:target{display:block}</style><svg viewBox="0 0 50 50" id="icons8-iobit-uninstaller-50" xmlns="http://www.w3.org/2000/svg"><path d="M25 2C12.317 2 2 12.317 2 25s10.317 23 23 23 23-10.317 23-23S37.683 2 25 2zm9.99 12.409-3.939 15.564a9.344 9.344 0 0 1-8.861 7.025c-1.372.028-2.755-.334-3.861-1.146-2.222-1.631-3.13-4.273-2.487-6.782l3.811-14.661a.549.549 0 0 1 .53-.41h2.44a.33.33 0 0 1 .319.409l-3.917 15.477c-.3 1.171.099 2.401 1.093 3.191.565.449 1.294.652 2.016.635a6.06 6.06 0 0 0 5.733-4.555L31.7 14.408a.549.549 0 0 1 .53-.41h2.44a.332.332 0 0 1 .32.411z"/></svg></svg>