<svg xmlns="http://www.w3.org/2000/svg"  viewBox="0 0 50 50" width="50px" height="50px"><path d="M25,2C12.317,2,2,12.317,2,25s10.317,23,23,23s23-10.317,23-23S37.683,2,25,2z M34.99,14.409l-3.939,15.564	c-1.044,4.074-4.672,6.939-8.861,7.025c-1.372,0.028-2.755-0.334-3.861-1.146c-2.222-1.631-3.13-4.273-2.487-6.782l3.811-14.661	c0.063-0.241,0.281-0.41,0.53-0.41h2.44c0.214,0,0.371,0.202,0.319,0.409l-3.917,15.477c-0.3,1.171,0.099,2.401,1.093,3.191	c0.565,0.449,1.294,0.652,2.016,0.635c2.711-0.062,5.057-1.917,5.733-4.555l3.833-14.748c0.063-0.241,0.281-0.41,0.53-0.41h2.44	C34.885,14,35.042,14.202,34.99,14.409z"/></svg>